# Blender v2.92.0 OBJ File: 'house.blend'
# www.blender.org
mtllib house.mtl
o Cube
v 0.000000 0.000000 0.000000
v 0.000000 3.000000 0.000000
v 0.000000 0.000000 -10.000000
v 0.000000 3.000000 -10.000000
v 15.000000 0.000000 0.000000
v 15.000000 3.000000 0.000000
v 15.000000 0.000000 -10.000000
v 15.000000 3.000000 -10.000000
v 5.000000 3.000000 -5.000000
v 10.000000 3.000000 -5.000000
v 5.000000 0.000000 -10.000000
v 10.000000 0.000000 -10.000000
v 10.000000 3.000000 -10.000000
v 5.000000 3.000000 -10.000000
v 10.000000 0.000000 -5.000000
v 5.000000 0.000000 -5.000000
v 5.000000 3.000000 0.000000
v 5.000000 0.000000 0.000000
v 10.000000 3.000000 0.000000
v 10.000000 0.000000 0.000000
v 2.500000 6.000000 0.000000
v 2.500000 6.000000 -7.500000
v 10.000000 6.000000 -7.500000
v 12.500000 6.000000 0.000000
v 12.500000 6.000000 -7.500000
v 5.000000 6.000000 -7.500000
vt 0.791667 0.500000
vt 0.791667 0.750000
vt 0.875000 0.750000
vt 0.875000 0.500000
vt 0.833333 0.500000
vt 0.375000 0.916667
vt 0.375000 1.000000
vt 0.625000 1.000000
vt 0.625000 0.916667
vt 0.375000 0.000000
vt 0.375000 0.250000
vt 0.625000 0.250000
vt 0.625000 0.000000
vt 0.291667 0.500000
vt 0.291667 0.625000
vt 0.333333 0.625000
vt 0.375000 0.500000
vt 0.375000 0.750000
vt 0.625000 0.750000
vt 0.625000 0.500000
vt 0.375000 0.416667
vt 0.375000 0.458333
vt 0.625000 0.458333
vt 0.625000 0.416667
vt 0.375000 0.270833
vt 0.375000 0.291667
vt 0.625000 0.291667
vt 0.375000 0.333333
vt 0.625000 0.333333
vt 0.125000 0.500000
vt 0.125000 0.750000
vt 0.166667 0.625000
vt 0.145833 0.500000
vt 0.208333 0.500000
vt 0.208333 0.625000
vt 0.375000 0.833333
vt 0.625000 0.833333
vt 0.708333 0.750000
vt 0.708333 0.500000
vt 0.666667 0.500000
vt 0.375000 0.479167
vt 0.354167 0.500000
vt 0.208333 0.750000
vt 0.333333 0.500000
vt 0.166667 0.500000
vt 0.291667 0.750000
vn 0.0000 -1.0000 0.0000
vn 0.0000 0.0000 -1.0000
vn 1.0000 0.0000 0.0000
vn 0.0000 0.6402 0.7682
vn -1.0000 0.0000 0.0000
vn 0.0000 0.0000 1.0000
vn 0.7682 0.6402 0.0000
vn -0.7682 0.6402 0.0000
vn 0.0000 0.6402 -0.7682
usemtl Material
s off
f 15/1/1 12/2/1 7/3/1 5/4/1 20/5/1
f 13/6/2 8/7/2 7/8/2 12/9/2
f 8/10/3 6/11/3 5/12/3 7/13/3
f 9/14/4 26/15/4 22/16/4
f 2/17/5 4/18/5 3/19/5 1/20/5
f 9/21/3 17/22/3 18/23/3 16/24/3
f 6/11/6 24/25/6 19/26/6 20/27/6 5/12/6
f 10/28/6 9/21/6 16/24/6 15/29/6
f 6/30/7 8/31/7 25/32/7 24/33/7
f 10/34/4 23/35/4 26/15/4 9/14/4
f 4/18/2 14/36/2 11/37/2 3/19/2
f 14/36/2 13/6/2 12/9/2 11/37/2
f 1/20/1 3/19/1 11/38/1 16/39/1 18/40/1
f 16/39/1 11/38/1 12/2/1 15/1/1
f 17/22/6 21/41/6 2/17/6 1/20/6 18/23/6
f 19/26/5 10/28/5 15/29/5 20/27/5
f 4/18/8 2/17/8 21/42/8 22/16/8
f 8/31/9 13/43/9 23/35/9 25/32/9
f 21/42/7 17/44/7 9/14/7 22/16/7
f 23/35/4 10/34/4 25/32/4
f 25/32/8 10/34/8 19/45/8 24/33/8
f 23/35/9 13/43/9 14/46/9 26/15/9
f 26/15/9 14/46/9 4/18/9 22/16/9
